<svg width="32" height="32" viewBox="0 0 32 32" fill="none" xmlns="http://www.w3.org/2000/svg">
<path d="M0 32V18.2857H4.57143V27.4286H13.7143V32H0ZM27.4286 13.7143V4.57143H18.2857V0H32V13.7143H27.4286Z" fill="url(#paint0_linear_101_3)"/>
<path d="M22.3126 12.7358C21.8917 13.1743 21.4085 13.5072 20.863 13.7346C20.3175 13.9619 19.7719 14.0756 19.2264 14.0756C18.6809 14.0756 18.1431 13.966 17.6132 13.7467C17.0832 13.5275 16.6078 13.1905 16.187 12.7358L14.4335 10.9089C14.1997 10.6653 13.9347 10.4826 13.6386 10.3608C13.3424 10.2391 13.0385 10.1782 12.7267 10.1782C12.415 10.1782 12.1111 10.2391 11.8149 10.3608C11.5188 10.4826 11.2538 10.6653 11.02 10.9089L9.2665 12.7358L7.93384 11.3474L9.68734 9.52046C10.1082 9.082 10.5836 8.75316 11.1135 8.53392C11.6435 8.31469 12.1812 8.20508 12.7267 8.20508C13.2723 8.20508 13.8061 8.31469 14.3283 8.53392C14.8504 8.75316 15.3219 9.082 15.7428 9.52046L17.4963 11.3474C17.7457 11.6072 18.0184 11.798 18.3146 11.9198C18.6107 12.0416 18.9147 12.1025 19.2264 12.1025C19.5381 12.1025 19.846 12.0416 20.1499 11.9198C20.4539 11.798 20.7305 11.6072 20.9799 11.3474L22.7334 9.52046L24.0661 10.9089L22.3126 12.7358ZM22.3126 17.6076C21.8917 18.0461 21.4124 18.375 20.8747 18.5942C20.337 18.8134 19.7953 18.923 19.2498 18.923C18.7042 18.923 18.1626 18.8134 17.6249 18.5942C17.0871 18.375 16.6078 18.0461 16.187 17.6076L14.4335 15.7807C14.1997 15.5371 13.9347 15.3544 13.6386 15.2326C13.3424 15.1108 13.0385 15.05 12.7267 15.05C12.415 15.05 12.1111 15.1108 11.8149 15.2326C11.5188 15.3544 11.2538 15.5371 11.02 15.7807L9.2665 17.6076L7.93384 16.2435L9.68734 14.3923C10.1082 13.9538 10.5836 13.625 11.1135 13.4057C11.6435 13.1865 12.1812 13.0769 12.7267 13.0769C13.2723 13.0769 13.8061 13.1865 14.3283 13.4057C14.8504 13.625 15.3219 13.9538 15.7428 14.3923L17.4963 16.2192C17.7457 16.479 18.0184 16.6698 18.3146 16.7916C18.6107 16.9134 18.9147 16.9743 19.2264 16.9743C19.5381 16.9743 19.846 16.9134 20.1499 16.7916C20.4539 16.6698 20.7305 16.479 20.9799 16.2192L22.7334 14.3923L24.0661 15.7807L22.3126 17.6076ZM22.2892 22.4794C21.8683 22.9179 21.393 23.2467 20.863 23.466C20.3331 23.6852 19.7953 23.7948 19.2498 23.7948C18.7042 23.7948 18.1626 23.6852 17.6249 23.466C17.0871 23.2467 16.6078 22.9179 16.187 22.4794L14.4101 20.6525C14.1763 20.4089 13.9113 20.2262 13.6152 20.1044C13.319 19.9826 13.0151 19.9217 12.7034 19.9217C12.3916 19.9217 12.0877 19.9826 11.7915 20.1044C11.4954 20.2262 11.2304 20.4089 10.9966 20.6525L9.24312 22.4794L7.93384 21.1153L9.68734 19.2641C10.1082 18.8256 10.5836 18.4967 11.1135 18.2775C11.6435 18.0583 12.1812 17.9487 12.7267 17.9487C13.2723 17.9487 13.8061 18.0583 14.3283 18.2775C14.8504 18.4967 15.3219 18.8256 15.7428 19.2641L17.4963 21.091C17.7457 21.3508 18.0223 21.5416 18.3263 21.6634C18.6302 21.7852 18.938 21.8461 19.2498 21.8461C19.5615 21.8461 19.8655 21.7852 20.1616 21.6634C20.4577 21.5416 20.7305 21.3508 20.9799 21.091L22.7334 19.2641L24.0427 20.6525L22.2892 22.4794Z" fill="url(#paint1_linear_101_3)"/>
<defs>
<linearGradient id="paint0_linear_101_3" x1="16" y1="0" x2="16" y2="32" gradientUnits="userSpaceOnUse">
<stop stop-color="#6262E3"/>
<stop offset="1" stop-color="#B694F9"/>
</linearGradient>
<linearGradient id="paint1_linear_101_3" x1="16" y1="8.20508" x2="16" y2="23.7948" gradientUnits="userSpaceOnUse">
<stop stop-color="#6866E5"/>
<stop offset="1" stop-color="#AA8DF6"/>
</linearGradient>
</defs>
</svg>
