<svg width="23" height="15" viewBox="0 0 23 15" fill="none" xmlns="http://www.w3.org/2000/svg">
<path d="M7.46852 13.9185C7.21852 14.0519 6.96435 14.0727 6.70602 13.981C6.44769 13.8894 6.25185 13.7185 6.11852 13.4685L0.118519 1.46852C-0.0148148 1.21852 -0.0356482 0.964352 0.0560185 0.706019C0.147685 0.447685 0.318519 0.251852 0.568519 0.118519C0.818519 -0.0148148 1.07269 -0.0356482 1.33102 0.0560185C1.58935 0.147685 1.78519 0.318519 1.91852 0.568519L7.91852 12.5685C8.05185 12.8185 8.07269 13.0727 7.98102 13.331C7.88935 13.5894 7.71852 13.7852 7.46852 13.9185ZM12.1435 13.9185C11.8935 14.0519 11.6394 14.0727 11.381 13.981C11.1227 13.8894 10.9269 13.7185 10.7935 13.4685L4.79352 1.46852C4.66019 1.21852 4.63935 0.964352 4.73102 0.706019C4.82269 0.447685 4.99352 0.251852 5.24352 0.118519C5.49352 -0.0148148 5.74352 -0.0356482 5.99352 0.0560185C6.24352 0.147685 6.43519 0.318519 6.56852 0.568519L12.5935 12.5685C12.7269 12.8185 12.7477 13.0727 12.656 13.331C12.5644 13.5894 12.3935 13.7852 12.1435 13.9185ZM16.8185 13.8935C16.5685 14.0269 16.3144 14.0519 16.056 13.9685C15.7977 13.8852 15.6019 13.7185 15.4685 13.4685L9.46852 1.46852C9.33519 1.21852 9.31435 0.964352 9.40602 0.706019C9.49769 0.447685 9.66852 0.251852 9.91852 0.118519C10.1685 -0.0148148 10.4185 -0.0356482 10.6685 0.0560185C10.9185 0.147685 11.1102 0.318519 11.2435 0.568519L17.2685 12.5685C17.4019 12.8185 17.4227 13.0685 17.331 13.3185C17.2394 13.5685 17.0685 13.7602 16.8185 13.8935ZM21.4685 13.9185C21.2185 14.0519 20.9644 14.0727 20.706 13.981C20.4477 13.8894 20.2519 13.7185 20.1185 13.4685L14.1185 1.46852C13.9852 1.21852 13.9644 0.964352 14.056 0.706019C14.1477 0.447685 14.3185 0.251852 14.5685 0.118519C14.8185 -0.0148148 15.0727 -0.0356482 15.331 0.0560185C15.5894 0.147685 15.7852 0.318519 15.9185 0.568519L21.9185 12.5685C22.0519 12.8185 22.0727 13.0727 21.981 13.331C21.8894 13.5894 21.7185 13.7852 21.4685 13.9185Z" fill="url(#paint0_linear_88_25)"/>
<defs>
<linearGradient id="paint0_linear_88_25" x1="11.0185" y1="0" x2="11.0185" y2="14.037" gradientUnits="userSpaceOnUse">
<stop stop-color="#6866E5"/>
<stop offset="1" stop-color="#A78BF5"/>
</linearGradient>
</defs>
</svg>
