<svg width="18" height="17" viewBox="0 0 18 17" fill="none" xmlns="http://www.w3.org/2000/svg">
<path d="M12 7.40865V2.94576C12 2.48825 11.79 2.04801 11.41 1.72861L9.7 0.252494C9.31 -0.0841647 8.68 -0.0841647 8.29 0.252494L6.59 1.71998C6.21 2.04801 6 2.48825 6 2.94576V3.95574H2C0.9 3.95574 0 4.73264 0 5.68219V14.3145C0 15.264 0.9 16.0409 2 16.0409H16C17.1 16.0409 18 15.264 18 14.3145V9.1351C18 8.18555 17.1 7.40865 16 7.40865H12ZM4 14.3145H2V12.588H4V14.3145ZM4 10.8616H2V9.1351H4V10.8616ZM4 7.40865H2V5.68219H4V7.40865ZM10 14.3145H8V12.588H10V14.3145ZM10 10.8616H8V9.1351H10V10.8616ZM10 7.40865H8V5.68219H10V7.40865ZM10 3.95574H8V2.22928H10V3.95574ZM16 14.3145H14V12.588H16V14.3145ZM16 10.8616H14V9.1351H16V10.8616Z" fill="url(#paint0_linear_38_103)"/>
<defs>
<linearGradient id="paint0_linear_38_103" x1="9" y1="0" x2="9" y2="16.0409" gradientUnits="userSpaceOnUse">
<stop stop-color="#9793FA"/>
<stop offset="1" stop-color="#CDB1FF"/>
</linearGradient>
</defs>
</svg>
