<svg width="22" height="23" viewBox="0 0 22 23" fill="none" xmlns="http://www.w3.org/2000/svg">
<path d="M12.175 8.00008L6.575 3.82508C6.34167 3.65841 6.20833 3.44175 6.175 3.17508C6.14167 2.90841 6.20833 2.65841 6.375 2.42508C6.54167 2.19175 6.75833 2.05425 7.025 2.01258C7.29167 1.97091 7.54167 2.03341 7.775 2.20008L13.375 6.40008L12.175 8.00008ZM8.35 6.40008L7.45 7.32508C7.36667 7.40842 7.2875 7.49592 7.2125 7.58758C7.1375 7.67925 7.06667 7.77508 7 7.87508L5.575 6.82508C5.34167 6.65841 5.20833 6.44175 5.175 6.17508C5.14167 5.90841 5.20833 5.65841 5.375 5.42508C5.54167 5.19175 5.75833 5.05841 6.025 5.02508C6.29167 4.99175 6.54167 5.05841 6.775 5.22508L8.35 6.40008ZM17.575 8.27508L9.975 2.60008C9.74167 2.43341 9.60417 2.21675 9.5625 1.95008C9.52083 1.68341 9.58333 1.43341 9.75 1.20008C9.91667 0.966748 10.1333 0.833415 10.4 0.800081C10.6667 0.766748 10.9167 0.833415 11.15 1.00008L16.05 4.65008L16.275 2.92508C16.325 2.52508 16.4833 2.18341 16.75 1.90008C17.0167 1.61675 17.3417 1.44175 17.725 1.37508L18.725 1.22508L21.075 9.12508C21.2083 9.57508 21.2333 10.0334 21.15 10.5001C21.0667 10.9667 20.8833 11.3917 20.6 11.7751L18.475 14.6001C18.4417 14.2001 18.3542 13.8126 18.2125 13.4376C18.0708 13.0626 17.8833 12.7084 17.65 12.3751L19 10.5751C19.1 10.4417 19.1583 10.3001 19.175 10.1501C19.1917 10.0001 19.1833 9.85008 19.15 9.70008L17.95 5.62508L17.575 8.27508ZM5.75 10.6751L5.4 10.4251C5.16667 10.2584 5.02917 10.0417 4.9875 9.77508C4.94583 9.50842 5.00833 9.25842 5.175 9.02508C5.34167 8.79175 5.55833 8.65842 5.825 8.62508C6.09167 8.59175 6.34167 8.65842 6.575 8.82508L6.6 8.85008C6.51667 9.15008 6.4875 9.45425 6.5125 9.76258C6.5375 10.0709 6.6 10.3751 6.7 10.6751H5.75ZM1 17.0001C0.716667 17.0001 0.479167 16.9042 0.2875 16.7126C0.0958333 16.5209 0 16.2834 0 16.0001C0 15.7167 0.0958333 15.4792 0.2875 15.2876C0.479167 15.0959 0.716667 15.0001 1 15.0001H8V17.0001H1ZM2 20.0001C1.71667 20.0001 1.47917 19.9042 1.2875 19.7126C1.09583 19.5209 1 19.2834 1 19.0001C1 18.7167 1.09583 18.4792 1.2875 18.2876C1.47917 18.0959 1.71667 18.0001 2 18.0001H8V20.0001H2ZM4 23.0001C3.71667 23.0001 3.47917 22.9042 3.2875 22.7126C3.09583 22.5209 3 22.2834 3 22.0001C3 21.7167 3.09583 21.4792 3.2875 21.2876C3.47917 21.0959 3.71667 21.0001 4 21.0001H14C14.2833 21.0001 14.5208 20.9042 14.7125 20.7126C14.9042 20.5209 15 20.2834 15 20.0001V15.0001C15 14.8334 14.9667 14.6834 14.9 14.5501C14.8333 14.4167 14.7333 14.3001 14.6 14.2001L11.2 11.6501L12.5 14.0001H3C2.71667 14.0001 2.47917 13.9042 2.2875 13.7126C2.09583 13.5209 2 13.2834 2 13.0001C2 12.7167 2.09583 12.4792 2.2875 12.2876C2.47917 12.0959 2.71667 12.0001 3 12.0001H9.1L8.25 10.5001C8.05 10.1501 7.97083 9.77925 8.0125 9.38758C8.05417 8.99592 8.21667 8.65842 8.5 8.37508L9.2 7.67508L15.8 12.6001C16.1833 12.8834 16.4792 13.2334 16.6875 13.6501C16.8958 14.0667 17 14.5167 17 15.0001V20.0001C17 20.8334 16.7083 21.5417 16.125 22.1251C15.5417 22.7084 14.8333 23.0001 14 23.0001H4Z" fill="url(#paint0_linear_89_39)"/>
<defs>
<linearGradient id="paint0_linear_89_39" x1="10.599" y1="0.791748" x2="10.599" y2="23.0001" gradientUnits="userSpaceOnUse">
<stop stop-color="#6564E4"/>
<stop offset="1" stop-color="#A489F4"/>
</linearGradient>
</defs>
</svg>
