<svg width="285" height="37" viewBox="0 0 285 37" fill="none" xmlns="http://www.w3.org/2000/svg">
<path d="M0.927979 35.904V2.544C2.75198 2.384 4.38398 2.272 5.82398 2.208C7.29598 2.112 8.65598 2.048 9.90398 2.016C11.152 1.952 12.32 1.92 13.408 1.92C16.416 1.92 18.832 2.208 20.656 2.784C22.48 3.328 23.792 4.208 24.592 5.424C25.424 6.608 25.84 8.176 25.84 10.128C25.84 11.952 25.424 13.52 24.592 14.832C23.76 16.112 22.528 17.088 20.896 17.76V17.856C23.008 18.368 24.656 19.376 25.84 20.88C27.024 22.384 27.616 24.224 27.616 26.4C27.616 28.192 27.36 29.728 26.848 31.008C26.336 32.288 25.536 33.328 24.448 34.128C23.36 34.928 21.92 35.52 20.128 35.904C18.368 36.288 16.176 36.48 13.552 36.48C12.656 36.48 11.84 36.464 11.104 36.432C10.368 36.432 9.67998 36.416 9.03998 36.384C8.39998 36.384 7.69598 36.352 6.92798 36.288C6.19198 36.256 5.34398 36.208 4.38398 36.144C3.42398 36.08 2.27198 36 0.927979 35.904ZM7.59998 16.56H15.136C16.032 16.56 16.816 16.368 17.488 15.984C18.192 15.6 18.72 15.056 19.072 14.352C19.456 13.648 19.648 12.848 19.648 11.952C19.648 10.864 19.424 9.968 18.976 9.264C18.56 8.56 17.872 8.048 16.912 7.728C15.984 7.408 14.72 7.248 13.12 7.248C12.704 7.248 12.32 7.248 11.968 7.248C11.648 7.248 11.344 7.264 11.056 7.296C10.768 7.296 10.464 7.312 10.144 7.344C9.82398 7.344 9.45598 7.36 9.03998 7.392C8.65598 7.424 8.17598 7.472 7.59998 7.536V16.56ZM7.59998 30.864C8.27198 30.896 8.87998 30.944 9.42398 31.008C9.96798 31.04 10.448 31.072 10.864 31.104C11.312 31.104 11.728 31.12 12.112 31.152C12.496 31.152 12.864 31.152 13.216 31.152C15.136 31.152 16.64 30.992 17.728 30.672C18.848 30.32 19.632 29.776 20.08 29.04C20.56 28.304 20.8 27.328 20.8 26.112C20.8 24.576 20.336 23.424 19.408 22.656C18.48 21.856 17.056 21.456 15.136 21.456H7.59998V30.864Z" fill="#141414"/>
<path d="M37.1477 10.032V13.104C38.0437 12.272 38.8757 11.6 39.6437 11.088C40.4437 10.544 41.2437 10.16 42.0437 9.936C42.8757 9.68 43.7397 9.552 44.6357 9.552C45.2117 9.552 45.7877 9.6 46.3637 9.696C46.9717 9.76 47.5637 9.888 48.1397 10.08L47.1317 15.84C46.5557 15.712 45.9637 15.616 45.3557 15.552C44.7797 15.456 44.2357 15.408 43.7237 15.408C42.7957 15.408 41.8357 15.584 40.8437 15.936C39.8517 16.288 38.8117 16.896 37.7237 17.76V36H31.3397V10.032H37.1477Z" fill="#141414"/>
<path d="M58.2797 36.48C56.7757 36.48 55.4637 36.208 54.3437 35.664C53.2237 35.12 52.3597 34.288 51.7517 33.168C51.1437 32.048 50.8397 30.64 50.8397 28.944V10.032H57.2237V27.456C57.2237 28.672 57.5277 29.6 58.1357 30.24C58.7757 30.848 59.6717 31.152 60.8237 31.152C61.4637 31.152 62.0717 31.088 62.6477 30.96C63.2237 30.832 63.7997 30.656 64.3757 30.432C64.9517 30.176 65.5597 29.888 66.1997 29.568V10.032H72.5837V28.848C72.5837 29.392 72.6317 29.824 72.7277 30.144C72.8557 30.464 73.0317 30.704 73.2557 30.864C73.4797 30.992 73.7357 31.056 74.0237 31.056C74.4077 31.056 74.7917 30.976 75.1757 30.816L75.7037 35.376C75.3517 35.6 74.9517 35.792 74.5037 35.952C74.0557 36.112 73.5597 36.24 73.0157 36.336C72.5037 36.432 71.9597 36.48 71.3837 36.48C70.3277 36.48 69.4317 36.256 68.6957 35.808C67.9597 35.328 67.3837 34.656 66.9677 33.792C66.0397 34.336 65.1117 34.816 64.1837 35.232C63.2557 35.648 62.3117 35.952 61.3517 36.144C60.3917 36.368 59.3677 36.48 58.2797 36.48Z" fill="#141414"/>
<path d="M78.4022 36V10.032H84.2102V12.288C85.2662 11.68 86.2742 11.184 87.2342 10.8C88.1942 10.384 89.1382 10.08 90.0662 9.888C91.0262 9.664 92.0342 9.552 93.0902 9.552C94.7542 9.552 96.1302 9.856 97.2182 10.464C98.3382 11.04 99.1702 11.872 99.7142 12.96C100.258 14.048 100.53 15.36 100.53 16.896V36H94.1462V18.912C94.1462 17.568 93.8262 16.576 93.1862 15.936C92.5782 15.264 91.6502 14.928 90.4022 14.928C89.7622 14.928 89.1382 15.008 88.5302 15.168C87.9222 15.296 87.3142 15.472 86.7062 15.696C86.0982 15.92 85.4582 16.208 84.7862 16.56V36H78.4022Z" fill="#141414"/>
<path d="M104.535 22.992C104.535 20.784 104.727 18.848 105.111 17.184C105.527 15.52 106.183 14.128 107.079 13.008C108.007 11.888 109.255 11.04 110.823 10.464C112.391 9.856 114.327 9.552 116.631 9.552C118.967 9.552 120.903 9.856 122.439 10.464C124.007 11.04 125.255 11.888 126.183 13.008C127.111 14.128 127.767 15.52 128.151 17.184C128.567 18.848 128.775 20.784 128.775 22.992C128.775 25.2 128.551 27.152 128.103 28.848C127.687 30.544 126.999 31.952 126.039 33.072C125.079 34.192 123.831 35.04 122.295 35.616C120.759 36.192 118.871 36.48 116.631 36.48C114.423 36.48 112.535 36.192 110.967 35.616C109.431 35.04 108.183 34.192 107.223 33.072C106.295 31.952 105.607 30.544 105.159 28.848C104.743 27.152 104.535 25.2 104.535 22.992ZM111.063 22.992C111.063 25.136 111.255 26.848 111.639 28.128C112.023 29.376 112.631 30.272 113.463 30.816C114.295 31.36 115.351 31.632 116.631 31.632C117.975 31.632 119.047 31.36 119.847 30.816C120.679 30.272 121.271 29.376 121.623 28.128C122.007 26.848 122.199 25.136 122.199 22.992C122.199 20.848 122.023 19.152 121.671 17.904C121.351 16.656 120.775 15.76 119.943 15.216C119.143 14.672 118.039 14.4 116.631 14.4C115.255 14.4 114.151 14.672 113.319 15.216C112.519 15.76 111.943 16.656 111.591 17.904C111.239 19.152 111.063 20.848 111.063 22.992Z" fill="#141414"/>
<path d="M169.238 3.504L167.99 8.64C167.35 8.416 166.63 8.224 165.83 8.064C165.03 7.872 164.198 7.712 163.334 7.584C162.502 7.456 161.654 7.36 160.79 7.296C159.926 7.232 159.11 7.2 158.342 7.2C156.23 7.2 154.566 7.536 153.35 8.208C152.166 8.848 151.574 9.824 151.574 11.136C151.574 11.776 151.734 12.352 152.054 12.864C152.406 13.344 152.934 13.808 153.638 14.256C154.342 14.704 155.27 15.136 156.422 15.552C157.606 15.968 159.014 16.4 160.646 16.848C162.374 17.328 163.878 17.888 165.158 18.528C166.438 19.136 167.494 19.824 168.326 20.592C169.19 21.36 169.814 22.256 170.198 23.28C170.614 24.272 170.822 25.424 170.822 26.736C170.822 28.816 170.262 30.576 169.142 32.016C168.054 33.456 166.438 34.56 164.294 35.328C162.182 36.096 159.59 36.48 156.518 36.48C155.526 36.48 154.47 36.432 153.35 36.336C152.23 36.24 151.094 36.112 149.942 35.952C148.822 35.76 147.734 35.536 146.678 35.28C145.622 35.024 144.678 34.736 143.846 34.416L145.142 29.328C146.006 29.616 146.934 29.888 147.926 30.144C148.918 30.368 149.926 30.576 150.95 30.768C151.974 30.928 152.998 31.056 154.022 31.152C155.046 31.248 156.006 31.296 156.902 31.296C158.47 31.296 159.782 31.152 160.838 30.864C161.894 30.544 162.678 30.08 163.19 29.472C163.734 28.864 164.006 28.128 164.006 27.264C164.006 26.592 163.798 26 163.382 25.488C162.966 24.976 162.342 24.528 161.51 24.144C160.678 23.728 159.606 23.296 158.294 22.848C157.014 22.4 155.51 21.904 153.782 21.36C152.246 20.816 150.902 20.24 149.75 19.632C148.63 19.024 147.702 18.336 146.966 17.568C146.23 16.768 145.67 15.872 145.286 14.88C144.934 13.888 144.758 12.768 144.758 11.52C144.758 10.112 145.03 8.832 145.574 7.68C146.118 6.496 146.934 5.472 148.022 4.608C149.142 3.744 150.55 3.088 152.246 2.64C153.974 2.16 155.99 1.92 158.294 1.92C159.67 1.92 161.03 2 162.374 2.16C163.75 2.288 165.03 2.48 166.214 2.736C167.43 2.96 168.438 3.216 169.238 3.504Z" fill="#141414"/>
<path d="M173.394 22.992C173.394 20.784 173.586 18.848 173.97 17.184C174.386 15.52 175.042 14.128 175.938 13.008C176.866 11.888 178.114 11.04 179.682 10.464C181.25 9.856 183.186 9.552 185.49 9.552C187.826 9.552 189.762 9.856 191.298 10.464C192.866 11.04 194.114 11.888 195.042 13.008C195.97 14.128 196.626 15.52 197.01 17.184C197.426 18.848 197.634 20.784 197.634 22.992C197.634 25.2 197.41 27.152 196.962 28.848C196.546 30.544 195.858 31.952 194.898 33.072C193.938 34.192 192.69 35.04 191.154 35.616C189.618 36.192 187.73 36.48 185.49 36.48C183.282 36.48 181.394 36.192 179.826 35.616C178.29 35.04 177.042 34.192 176.082 33.072C175.154 31.952 174.466 30.544 174.018 28.848C173.602 27.152 173.394 25.2 173.394 22.992ZM179.922 22.992C179.922 25.136 180.114 26.848 180.498 28.128C180.882 29.376 181.49 30.272 182.322 30.816C183.154 31.36 184.21 31.632 185.49 31.632C186.834 31.632 187.906 31.36 188.706 30.816C189.538 30.272 190.13 29.376 190.482 28.128C190.866 26.848 191.058 25.136 191.058 22.992C191.058 20.848 190.882 19.152 190.53 17.904C190.21 16.656 189.634 15.76 188.802 15.216C188.002 14.672 186.898 14.4 185.49 14.4C184.114 14.4 183.01 14.672 182.178 15.216C181.378 15.76 180.802 16.656 180.45 17.904C180.098 19.152 179.922 20.848 179.922 22.992Z" fill="#141414"/>
<path d="M201.637 35.232V0.48H208.021V12.096C209.365 11.232 210.677 10.592 211.957 10.176C213.269 9.76 214.581 9.552 215.893 9.552C218.805 9.552 221.013 10.64 222.517 12.816C224.053 14.992 224.821 18.176 224.821 22.368C224.821 25.696 224.373 28.4 223.477 30.48C222.581 32.56 221.189 34.08 219.301 35.04C217.413 36 214.965 36.48 211.957 36.48C210.485 36.48 208.885 36.368 207.157 36.144C205.429 35.92 203.589 35.616 201.637 35.232ZM208.021 31.344C208.821 31.504 209.557 31.632 210.229 31.728C210.901 31.824 211.541 31.872 212.149 31.872C213.557 31.872 214.693 31.584 215.557 31.008C216.453 30.432 217.109 29.488 217.525 28.176C217.973 26.832 218.197 25.056 218.197 22.848C218.197 20.992 218.021 19.488 217.669 18.336C217.317 17.184 216.789 16.32 216.085 15.744C215.413 15.168 214.565 14.88 213.541 14.88C212.965 14.88 212.389 14.944 211.813 15.072C211.237 15.2 210.645 15.392 210.037 15.648C209.429 15.904 208.757 16.256 208.021 16.704V31.344Z" fill="#141414"/>
<path d="M234.585 10.032V13.104C235.481 12.272 236.313 11.6 237.081 11.088C237.881 10.544 238.681 10.16 239.481 9.936C240.313 9.68 241.177 9.552 242.073 9.552C242.649 9.552 243.225 9.6 243.801 9.696C244.409 9.76 245.001 9.888 245.577 10.08L244.569 15.84C243.993 15.712 243.401 15.616 242.793 15.552C242.217 15.456 241.673 15.408 241.161 15.408C240.233 15.408 239.273 15.584 238.281 15.936C237.289 16.288 236.249 16.896 235.161 17.76V36H228.777V10.032H234.585Z" fill="#141414"/>
<path d="M245.621 29.232C245.621 27.632 245.925 26.336 246.533 25.344C247.141 24.32 248.069 23.52 249.317 22.944C250.597 22.336 252.181 21.872 254.069 21.552C255.989 21.2 258.229 20.928 260.789 20.736V18.336C260.789 17.184 260.357 16.336 259.493 15.792C258.629 15.216 257.381 14.928 255.749 14.928C255.077 14.928 254.325 14.96 253.493 15.024C252.661 15.088 251.797 15.2 250.901 15.36C250.005 15.52 249.093 15.744 248.165 16.032L247.061 10.944C248.501 10.528 250.021 10.192 251.621 9.936C253.253 9.68 254.773 9.552 256.181 9.552C258.709 9.552 260.789 9.888 262.421 10.56C264.053 11.2 265.253 12.176 266.021 13.488C266.821 14.768 267.221 16.368 267.221 18.288V28.656C267.221 29.552 267.349 30.16 267.605 30.48C267.861 30.8 268.181 30.96 268.565 30.96C268.725 30.96 268.917 30.944 269.141 30.912C269.365 30.88 269.573 30.816 269.765 30.72L270.293 35.376C269.749 35.696 269.125 35.952 268.421 36.144C267.717 36.368 266.965 36.48 266.165 36.48C264.885 36.48 263.861 36.224 263.093 35.712C262.325 35.168 261.765 34.352 261.413 33.264C260.613 33.872 259.765 34.432 258.869 34.944C257.973 35.424 257.013 35.792 255.989 36.048C254.965 36.336 253.829 36.48 252.581 36.48C251.525 36.48 250.581 36.32 249.749 36C248.917 35.68 248.181 35.216 247.541 34.608C246.933 33.968 246.453 33.2 246.101 32.304C245.781 31.408 245.621 30.384 245.621 29.232ZM252.101 28.8C252.101 29.92 252.357 30.768 252.869 31.344C253.413 31.888 254.133 32.16 255.029 32.16C255.701 32.16 256.373 32.048 257.045 31.824C257.749 31.6 258.421 31.312 259.061 30.96C259.733 30.576 260.309 30.128 260.789 29.616V24.288C259.413 24.352 258.181 24.48 257.093 24.672C256.037 24.864 255.125 25.12 254.357 25.44C253.621 25.76 253.061 26.192 252.677 26.736C252.293 27.28 252.101 27.968 252.101 28.8Z" fill="#141414"/>
<path d="M279.177 0.48V27.6C279.177 28.528 279.273 29.248 279.465 29.76C279.689 30.24 279.977 30.56 280.329 30.72C280.713 30.88 281.129 30.96 281.577 30.96C281.897 30.96 282.249 30.928 282.633 30.864C283.017 30.8 283.433 30.704 283.881 30.576L284.457 35.472C283.817 35.76 283.097 36 282.297 36.192C281.497 36.384 280.633 36.48 279.705 36.48C278.233 36.48 276.969 36.224 275.913 35.712C274.889 35.2 274.105 34.336 273.561 33.12C273.049 31.904 272.793 30.256 272.793 28.176V0.48H279.177Z" fill="#141414"/>
</svg>
