<svg width="61" height="57" viewBox="0 0 61 57" fill="none" xmlns="http://www.w3.org/2000/svg">
<path d="M54.3696 16.5656C52.7783 18.1687 50.9512 19.3859 48.8884 20.2172C46.8256 21.0484 44.7628 21.4641 42.7 21.4641C40.6372 21.4641 38.6039 21.0633 36.6 20.2617C34.5961 19.4602 32.7986 18.2281 31.2072 16.5656L24.5768 9.88594C23.6928 8.99531 22.6908 8.32734 21.571 7.88203C20.4512 7.43672 19.3019 7.21406 18.1232 7.21406C16.9444 7.21406 15.7952 7.43672 14.6754 7.88203C13.5556 8.32734 12.5536 8.99531 11.6696 9.88594L5.03913 16.5656L0 11.4891L6.63043 4.80937C8.22174 3.20625 10.0193 2.00391 12.0232 1.20234C14.0271 0.400781 16.0604 0 18.1232 0C20.186 0 22.2046 0.400781 24.179 1.20234C26.1534 2.00391 27.9362 3.20625 29.5275 4.80937L36.158 11.4891C37.101 12.4391 38.1324 13.1367 39.2522 13.582C40.372 14.0273 41.5213 14.25 42.7 14.25C43.8787 14.25 45.0428 14.0273 46.192 13.582C47.3413 13.1367 48.3874 12.4391 49.3304 11.4891L55.9609 4.80937L61 9.88594L54.3696 16.5656ZM54.3696 34.3781C52.7783 35.9812 50.9659 37.1836 48.9326 37.9852C46.8993 38.7867 44.8512 39.1875 42.7884 39.1875C40.7256 39.1875 38.6775 38.7867 36.6442 37.9852C34.6109 37.1836 32.7986 35.9812 31.2072 34.3781L24.5768 27.6984C23.6928 26.8078 22.6908 26.1398 21.571 25.6945C20.4512 25.2492 19.3019 25.0266 18.1232 25.0266C16.9444 25.0266 15.7952 25.2492 14.6754 25.6945C13.5556 26.1398 12.5536 26.8078 11.6696 27.6984L5.03913 34.3781L0 29.3906L6.63043 22.6219C8.22174 21.0187 10.0193 19.8164 12.0232 19.0148C14.0271 18.2133 16.0604 17.8125 18.1232 17.8125C20.186 17.8125 22.2046 18.2133 24.179 19.0148C26.1534 19.8164 27.9362 21.0187 29.5275 22.6219L36.158 29.3016C37.101 30.2516 38.1324 30.9492 39.2522 31.3945C40.372 31.8398 41.5213 32.0625 42.7 32.0625C43.8787 32.0625 45.0428 31.8398 46.192 31.3945C47.3413 30.9492 48.3874 30.2516 49.3304 29.3016L55.9609 22.6219L61 27.6984L54.3696 34.3781ZM54.2812 52.1906C52.6899 53.7937 50.8923 54.9961 48.8884 55.7977C46.8845 56.5992 44.8512 57 42.7884 57C40.7256 57 38.6775 56.5992 36.6442 55.7977C34.6109 54.9961 32.7986 53.7937 31.2072 52.1906L24.4884 45.5109C23.6043 44.6203 22.6024 43.9523 21.4826 43.507C20.3628 43.0617 19.2135 42.8391 18.0348 42.8391C16.856 42.8391 15.7068 43.0617 14.587 43.507C13.4671 43.9523 12.4652 44.6203 11.5812 45.5109L4.95072 52.1906L0 47.2031L6.63043 40.4344C8.22174 38.8312 10.0193 37.6289 12.0232 36.8273C14.0271 36.0258 16.0604 35.625 18.1232 35.625C20.186 35.625 22.2046 36.0258 24.179 36.8273C26.1534 37.6289 27.9362 38.8312 29.5275 40.4344L36.158 47.1141C37.101 48.0641 38.1471 48.7617 39.2964 49.207C40.4457 49.6523 41.6097 49.875 42.7884 49.875C43.9671 49.875 45.1164 49.6523 46.2362 49.207C47.356 48.7617 48.3874 48.0641 49.3304 47.1141L55.9609 40.4344L60.9116 45.5109L54.2812 52.1906Z" fill="url(#paint0_linear_88_27)"/>
<defs>
<linearGradient id="paint0_linear_88_27" x1="30.5" y1="0" x2="30.5" y2="57" gradientUnits="userSpaceOnUse">
<stop stop-color="#6866E5"/>
<stop offset="1" stop-color="#AA8DF6"/>
</linearGradient>
</defs>
</svg>
