<svg width="75" height="49" viewBox="0 0 75 49" fill="none" xmlns="http://www.w3.org/2000/svg">
<path d="M35.625 49C32.5 49 29.8438 48.1593 27.6562 46.4779C25.4687 44.7966 24.375 42.7549 24.375 40.3529H31.875C31.875 41.1696 32.2344 41.8542 32.9531 42.4066C33.6719 42.9591 34.5625 43.2353 35.625 43.2353C36.6875 43.2353 37.5781 42.9591 38.2969 42.4066C39.0156 41.8542 39.375 41.1696 39.375 40.3529C39.375 39.5363 39.0156 38.8517 38.2969 38.2993C37.5781 37.7468 36.6875 37.4706 35.625 37.4706H0V31.7059H35.625C38.75 31.7059 41.4062 32.5466 43.5938 34.2279C45.7813 35.9093 46.875 37.951 46.875 40.3529C46.875 42.7549 45.7813 44.7966 43.5938 46.4779C41.4062 48.1593 38.75 49 35.625 49ZM0 20.1765V14.4118H50.625C52.25 14.4118 53.5938 14.0034 54.6562 13.1868C55.7187 12.3701 56.25 11.3373 56.25 10.0882C56.25 8.83922 55.7187 7.80637 54.6562 6.98971C53.5938 6.17304 52.25 5.76471 50.625 5.76471C49 5.76471 47.6562 6.17304 46.5938 6.98971C45.5313 7.80637 45 8.83922 45 10.0882H37.5C37.5 7.25392 38.7656 4.86397 41.2969 2.91838C43.8281 0.972794 46.9375 0 50.625 0C54.3125 0 57.4219 0.972794 59.9531 2.91838C62.4844 4.86397 63.75 7.25392 63.75 10.0882C63.75 12.9225 62.4844 15.3125 59.9531 17.2581C57.4219 19.2037 54.3125 20.1765 50.625 20.1765H0ZM61.875 43.2353V37.4706C63.5 37.4706 64.8438 37.0623 65.9062 36.2456C66.9687 35.4289 67.5 34.3961 67.5 33.1471C67.5 31.898 66.9687 30.8652 65.9062 30.0485C64.8438 29.2319 63.5 28.8235 61.875 28.8235H0V23.0588H61.875C65.5625 23.0588 68.6719 24.0316 71.2031 25.9772C73.7344 27.9228 75 30.3127 75 33.1471C75 35.9814 73.7344 38.3713 71.2031 40.3169C68.6719 42.2625 65.5625 43.2353 61.875 43.2353Z" fill="url(#paint0_linear_88_17)"/>
<defs>
<linearGradient id="paint0_linear_88_17" x1="37.5" y1="0" x2="37.5" y2="49" gradientUnits="userSpaceOnUse">
<stop stop-color="#6B67E5"/>
<stop offset="1" stop-color="#A087F3"/>
</linearGradient>
</defs>
</svg>
